<?xml version="1.0" encoding="UTF-8"?>
<svg width="16px" height="16px" viewBox="0 0 16 16" version="1.1" xmlns="http://www.w3.org/2000/svg" xmlns:xlink="http://www.w3.org/1999/xlink">
    <title>编组 39</title>
    <g id="✅站会显示" stroke="none" stroke-width="1" fill="none" fill-rule="evenodd">
        <g id="1.1站会内容页_正常显示(1920x1080)备份-5" transform="translate(-328.000000, -653.000000)" fill-rule="nonzero">
            <g id="编组-18" transform="translate(322.000000, 531.000000)">
                <g id="编组-3备份-3" transform="translate(0.000000, 114.000000)">
                    <g id="编组-39" transform="translate(6.000000, 8.000000)">
                        <rect id="矩形" fill="#000000" opacity="0" x="0" y="0" width="16" height="16"></rect>
                        <path d="M8.00140625,14.9884375 C4.13921875,14.9884375 1.00890625,11.8575 1.00890625,7.9959375 C1.00890625,4.13375 4.139375,1.0034375 8.00140625,1.0034375 C11.8629687,1.0034375 14.994375,4.13390625 14.994375,7.9959375 C14.994375,11.858125 11.8629687,14.9884375 8.00140625,14.9884375 Z" id="路径" fill="#FFFFFF"></path>
                        <polygon id="路径" fill="#000000" points="11.498125 7.296875 8.7009375 7.296875 8.7009375 4.4996875 7.30265625 4.4996875 7.30265625 7.296875 4.505 7.296875 4.505 8.69515625 7.30203125 8.69515625 7.30203125 11.4921875 8.7003125 11.4921875 8.7003125 8.69515625 11.4973438 8.69515625 11.4973438 7.296875 11.498125 7.296875"></polygon>
                    </g>
                </g>
            </g>
        </g>
    </g>
</svg>